<?xml version="1.0" standalone="no"?>
<!DOCTYPE svg PUBLIC "-//W3C//DTD SVG 20010904//EN"
 "http://www.w3.org/TR/2001/REC-SVG-20010904/DTD/svg10.dtd">
<svg version="1.0" xmlns="http://www.w3.org/2000/svg"
 width="500.000000pt" height="500.000000pt" viewBox="0 0 500.000000 500.000000"
 preserveAspectRatio="xMidYMid meet">
<metadata>
Created by potrace 1.16, written by Peter Selinger 2001-2019
</metadata>
<g transform="translate(0.000000,500.000000) scale(0.100000,-0.100000)"
fill="#000000" stroke="none">
<path d="M1913 4035 c-63 -19 -140 -72 -178 -122 -47 -61 -78 -148 -70 -192 8
-44 46 -119 79 -159 21 -24 26 -40 26 -83 -1 -51 -9 -68 -164 -334 -146 -250
-162 -281 -147 -293 14 -11 17 -9 21 15 3 16 77 153 165 306 l160 278 100 -2
c59 -1 112 3 130 10 97 39 180 124 211 215 l16 46 364 0 364 0 0 25 0 25 -363
0 -363 0 -24 58 c-32 77 -105 153 -178 185 -78 34 -100 37 -149 22z m214 -81
c67 -54 83 -94 83 -210 0 -86 -3 -107 -23 -145 -34 -63 -95 -98 -183 -106
-107 -9 -177 10 -229 61 -52 52 -70 115 -63 222 6 94 41 156 108 191 41 22 55
24 157 21 107 -3 113 -4 150 -34z"/>
<path d="M3318 3566 c-14 -11 1 -42 148 -295 160 -277 164 -286 164 -341 0
-40 -5 -62 -16 -70 -23 -20 -64 -95 -80 -145 -12 -41 -11 -52 6 -108 11 -37
34 -80 55 -104 31 -36 35 -48 35 -96 0 -54 -6 -66 -161 -334 -88 -153 -161
-282 -162 -287 -1 -5 4 -11 11 -13 6 -3 12 1 12 9 0 7 77 144 169 303 l169
290 109 0 c98 0 113 2 158 27 50 26 117 90 147 139 9 14 23 49 32 77 13 45 13
58 1 97 -30 100 -104 187 -194 229 -38 17 -65 21 -151 21 l-105 0 -162 280
c-89 154 -163 292 -165 307 -3 23 -5 25 -20 14z m664 -682 c24 -16 53 -48 66
-69 20 -36 22 -50 20 -157 -3 -113 -4 -117 -34 -155 -49 -62 -102 -83 -209
-83 -101 0 -151 17 -197 66 -40 43 -48 75 -48 185 0 78 4 108 19 137 45 87
103 114 243 109 90 -2 101 -5 140 -33z"/>
<path d="M1454 2482 c-8 -5 44 -102 152 -290 152 -263 164 -287 164 -333 0
-42 -6 -58 -35 -96 -47 -62 -78 -148 -70 -193 10 -53 63 -146 106 -185 56 -50
136 -88 189 -89 115 -2 247 109 293 247 6 16 30 17 304 17 164 0 328 3 366 7
62 5 67 8 67 29 l0 24 -363 0 -363 0 -24 58 c-32 78 -105 152 -181 187 -54 24
-72 27 -158 26 l-97 -2 -162 281 c-89 154 -162 289 -162 300 0 21 -7 25 -26
12z m637 -656 c19 -8 46 -27 60 -43 49 -52 59 -84 59 -191 0 -123 -21 -171
-93 -216 -57 -35 -163 -46 -248 -26 -72 18 -131 77 -149 149 -20 85 -9 191 26
248 45 72 94 93 214 93 62 0 110 -5 131 -14z"/>
</g>
</svg>
