<?xml version="1.0" encoding="UTF-8" standalone="no"?>
<!-- Created with Inkscape (http://www.inkscape.org/) -->

<svg
   xmlns:dc="http://purl.org/dc/elements/1.1/"
   xmlns:cc="http://creativecommons.org/ns#"
   xmlns:rdf="http://www.w3.org/1999/02/22-rdf-syntax-ns#"
   xmlns:svg="http://www.w3.org/2000/svg"
   xmlns="http://www.w3.org/2000/svg"
   xmlns:sodipodi="http://sodipodi.sourceforge.net/DTD/sodipodi-0.dtd"
   xmlns:inkscape="http://www.inkscape.org/namespaces/inkscape"
   version="1.1"
   id="svg2"
   width="666.88"
   height="666.88"
   viewBox="0 0 666.88 666.88"
   sodipodi:docname="ecell-logo-01.svg"
   inkscape:version="0.92.4 (5da689c313, 2019-01-14)">
  <metadata
     id="metadata8">
    <rdf:RDF>
      <cc:Work
         rdf:about="">
        <dc:format>image/svg+xml</dc:format>
        <dc:type
           rdf:resource="http://purl.org/dc/dcmitype/StillImage" />
        <dc:title></dc:title>
      </cc:Work>
    </rdf:RDF>
  </metadata>
  <defs
     id="defs6" />
  <sodipodi:namedview
     pagecolor="#ffffff"
     bordercolor="#666666"
     borderopacity="1"
     objecttolerance="10"
     gridtolerance="10"
     guidetolerance="10"
     inkscape:pageopacity="0"
     inkscape:pageshadow="2"
     inkscape:window-width="1366"
     inkscape:window-height="705"
     id="namedview4"
     showgrid="false"
     inkscape:zoom="0.70777351"
     inkscape:cx="486.53992"
     inkscape:cy="286.75165"
     inkscape:window-x="-8"
     inkscape:window-y="-8"
     inkscape:window-maximized="1"
     inkscape:current-layer="svg2" />
  <g
     id="g924">
    <path
       inkscape:connector-curvature="0"
       id="path823"
       d="m 246.45522,251.35407 c -2.62082,-2.4087 -5.39378,-4.0828 -8.70187,-5.25351 -1.68124,-0.59498 -3.11778,-1.12743 -3.19231,-1.18323 -0.0745,-0.0558 0.56128,-1.25647 1.41288,-2.66817 0.85161,-1.41169 1.80413,-3.04618 2.11671,-3.63218 0.31258,-0.58601 1.44292,-2.57549 2.51186,-4.42106 1.06894,-1.84558 3.37014,-5.81931 5.11379,-8.83051 1.74364,-3.0112 4.41486,-7.62073 5.93603,-10.24339 4.58508,-7.90518 8.93331,-15.4383 11.92723,-20.66339 1.55842,-2.7198 3.22121,-5.62062 3.6951,-6.44627 0.47389,-0.82565 0.9267,-1.50119 1.00625,-1.50119 0.0795,0 1.13887,0.8067 2.35404,1.79266 2.02581,1.64369 9.38088,5.62497 10.39164,5.62497 0.95361,0 0.73055,0.78093 -1.17431,4.11109 -1.09579,1.91573 -2.70299,4.75474 -3.57154,6.30891 -0.86855,1.55417 -1.85002,3.22314 -2.18104,3.70881 -0.33102,0.48568 -1.6112,2.71097 -2.84483,4.94509 -1.23364,2.23412 -2.51381,4.4594 -2.84483,4.94508 -0.33102,0.48568 -1.31607,2.15465 -2.189,3.70882 -1.5751,2.80431 -6.02754,10.52664 -9.97912,17.30779 -1.13207,1.94272 -2.72946,4.72433 -3.54974,6.18136 -1.35621,2.40895 -3.6141,6.2492 -4.29947,7.31258 -0.19078,0.296 -0.77815,-0.0388 -1.93747,-1.10426 z"
       style="opacity:1;fill:#ececec;fill-opacity:1;stroke:#ffffff;stroke-width:0;stroke-linecap:round;stroke-linejoin:round;stroke-miterlimit:4;stroke-dasharray:none;stroke-opacity:1" />
    <path
       inkscape:connector-curvature="0"
       id="path825"
       d="m 266.87914,350.81711 c -6.16654,-10.57572 -7.20656,-12.3738 -17.604,-30.43543 -1.84527,-3.20547 -4.83087,-8.37132 -6.63465,-11.47966 -1.80379,-3.10834 -3.97559,-6.89305 -4.82624,-8.41047 -0.85065,-1.51743 -1.96524,-3.3915 -2.47686,-4.16461 -0.52793,-0.79776 -0.79127,-1.52222 -0.60892,-1.6752 0.17671,-0.14825 1.46113,-0.62381 2.85427,-1.05679 2.69666,-0.83811 6.76951,-3.31368 9.16844,-5.57278 l 1.45802,-1.37303 1.28671,2.29593 c 0.70769,1.26276 1.89315,3.3291 2.63436,4.59187 2.79497,4.76166 9.38931,16.17986 10.91372,18.89728 0.87185,1.55417 1.88385,3.24768 2.24887,3.76334 0.36502,0.51567 0.66368,1.03998 0.66368,1.16514 0,0.22012 1.9676,3.62741 5.16544,8.94494 0.85016,1.4137 1.54575,2.64335 1.54575,2.73256 0,0.0892 0.82018,1.5552 1.82263,3.25777 5.21229,8.85263 7.3611,12.62212 7.3611,12.91304 0,0.10699 -0.59606,0.38527 -1.32458,0.61841 -3.04527,0.97452 -7.86766,3.83058 -11.92144,7.06047 -0.21186,0.1688 -0.90348,-0.66163 -1.7263,-2.07278 z"
       style="opacity:1;fill:#ececec;fill-opacity:1;stroke:#ffffff;stroke-width:0;stroke-linecap:round;stroke-linejoin:round;stroke-miterlimit:4;stroke-dasharray:none;stroke-opacity:1" />
    <path
       inkscape:connector-curvature="0"
       id="path827"
       d="m 318.48743,332.18723 c -1.9245,-0.83484 -3.36288,-2.09017 -4.49917,-3.92659 -1.07215,-1.73276 -3.3653,-5.67492 -9.82262,-16.88608 -1.11895,-1.94271 -2.86793,-4.96274 -3.88662,-6.71118 -1.68949,-2.89977 -3.33898,-5.77172 -7.60764,-13.24577 -0.83216,-1.45703 -2.12283,-3.61392 -2.86816,-4.7931 -0.74534,-1.17917 -1.35515,-2.25478 -1.35515,-2.39025 0,-0.13546 -0.68946,-1.39597 -1.53212,-2.80113 -5.02839,-8.38494 -5.17907,-8.72207 -5.17907,-11.58781 0,-2.99604 -0.24879,-2.41456 4.59844,-10.74737 5.06244,-8.70279 7.02584,-12.11499 8.73952,-15.18847 0.86656,-1.55417 1.69993,-2.98471 1.85194,-3.17899 0.31894,-0.40761 4.09987,-6.90102 4.93608,-8.47728 0.30919,-0.58282 1.25628,-2.25178 2.10464,-3.70882 1.96988,-3.38318 4.798,-8.27058 6.74496,-11.65627 3.16925,-5.51119 3.85668,-6.56557 4.99718,-7.66464 2.43812,-2.34955 0.38203,-2.22573 36.92488,-2.22356 20.40304,0.001 33.60057,0.13409 34.36202,0.34596 1.98088,0.55118 3.61735,2.1899 5.70911,5.71697 3.50847,5.91587 5.058,8.58121 5.41733,9.3183 0.33678,0.69081 1.97159,3.5004 4.71039,8.09529 0.69129,1.15976 1.83447,3.14663 2.54041,4.41526 0.70594,1.26862 2.21043,3.89608 3.34329,5.83879 3.8275,6.56363 8.38458,14.4663 9.98056,17.3078 0.87293,1.55417 1.86351,3.22314 2.20128,3.70882 0.33778,0.48567 1.19276,2.06562 1.89996,3.511 1.02085,2.08642 1.28581,3.04253 1.28581,4.63983 0,3.8254 -2.79059,7.36751 -6.64856,8.43904 -0.8534,0.23703 -16.44245,0.35612 -45.45144,0.34723 -47.79035,-0.0147 -45.3143,0.0847 -48.2275,-1.93419 -1.89211,-1.31124 -3.51928,-4.5674 -3.51928,-7.04252 0,-3.71917 2.96559,-7.55308 6.41456,-8.29275 1.16279,-0.24938 13.69038,-0.37409 37.57876,-0.37409 19.70896,0 35.83448,-0.12358 35.83448,-0.27462 0,-0.15105 -0.23966,-0.61679 -0.53258,-1.03499 -0.29293,-0.41821 -1.42606,-2.32122 -2.51809,-4.22894 -1.09203,-1.90771 -2.85725,-4.97858 -3.92271,-6.82416 -1.06546,-1.84557 -2.25516,-3.91191 -2.64378,-4.59186 -1.45403,-2.54404 -3.61774,-6.28117 -5.41942,-9.36034 -1.02305,-1.74844 -2.7207,-4.689 -3.77256,-6.53458 l -1.91247,-3.35559 -26.46242,-0.0889 -26.46242,-0.0889 -1.74722,3.0913 c -0.96097,1.70021 -2.55046,4.46276 -3.53221,6.13898 -2.03866,3.48084 -2.46904,4.22726 -4.96367,8.60859 -0.99553,1.74844 -2.73857,4.76847 -3.87343,6.71118 -1.13487,1.94271 -2.33698,4.01815 -2.67135,4.61208 -2.53234,4.498 -4.17865,7.34549 -5.29799,9.16352 -0.71767,1.16562 -1.89203,3.19389 -2.60969,4.50726 l -1.30485,2.38794 1.20667,2.02731 c 2.42216,4.06945 4.31013,7.33388 4.44102,7.67879 0.0737,0.1943 0.92843,1.70434 1.89935,3.35565 0.97091,1.6513 2.40314,4.11501 3.18274,5.47491 2.20473,3.84585 4.94592,8.57451 6.65137,11.47386 0.85517,1.45384 1.8044,3.12281 2.10941,3.70881 0.89501,1.71959 4.51798,7.91034 5.82549,9.95431 l 1.20542,1.88438 h 29.89883 c 21.88949,0 30.27013,0.11124 31.28489,0.41527 0.76232,0.2284 1.99504,1.02427 2.73937,1.76859 4.5157,4.5157 3.46003,11.40367 -2.1784,14.21342 l -1.82716,0.91051 -33.57489,-0.0138 c -29.03586,-0.012 -33.7399,-0.0854 -34.79552,-0.54333 z"
       style="opacity:1;fill:#ececec;fill-opacity:1;stroke:#ffffff;stroke-width:0;stroke-linecap:round;stroke-linejoin:round;stroke-miterlimit:4;stroke-dasharray:none;stroke-opacity:1" />
    <path
       inkscape:connector-curvature="0"
       id="path829"
       d="m 328.98541,387.5596 c 0.80839,-2.547 0.81592,-10.57547 0.0134,-14.22954 l -0.22513,-1.02499 h 33.27493 33.27493 l -0.25705,1.14797 c -0.75329,3.36408 -0.86091,4.20578 -0.8694,6.79949 -0.005,1.55417 0.22641,3.93835 0.51445,5.29817 0.28803,1.35983 0.5237,2.51221 0.5237,2.56085 0,0.0486 -14.95193,0.0884 -33.22652,0.0884 -31.92339,0 -33.21854,-0.0251 -33.02326,-0.64039 z"
       style="opacity:1;fill:#ececec;fill-opacity:1;stroke:#ffffff;stroke-width:0;stroke-linecap:round;stroke-linejoin:round;stroke-miterlimit:4;stroke-dasharray:none;stroke-opacity:1" />
    <path
       inkscape:connector-curvature="0"
       id="path831"
       d="m 437.07852,362.37121 c -2.68235,-2.76952 -6.6181,-5.10705 -10.88651,-6.46575 -0.63512,-0.20216 -0.63569,-0.24032 -0.0174,-1.1767 0.35146,-0.53226 1.22037,-2.00093 1.9309,-3.26369 1.82747,-3.24782 4.64038,-8.11416 11.12745,-19.25051 1.13165,-1.94271 2.31052,-4.00905 2.6197,-4.59186 0.5797,-1.09273 2.40545,-4.25669 5.29942,-9.18373 0.91286,-1.55417 2.42579,-4.17683 3.36206,-5.82814 0.93627,-1.6513 2.4505,-4.27396 3.36496,-5.82813 0.91446,-1.55417 2.56941,-4.37552 3.67768,-6.26966 1.10826,-1.89415 2.08537,-3.4439 2.17135,-3.4439 0.086,0 1.00096,0.68796 2.03329,1.5288 2.25564,1.83725 5.13412,3.51718 8.63182,5.03769 1.42421,0.61913 2.68,1.21623 2.79067,1.32689 0.11066,0.11066 -0.3541,1.04232 -1.0328,2.07035 -0.6787,1.02803 -1.58096,2.55438 -2.00502,3.39189 -0.42405,0.8375 -1.31915,2.37962 -1.98911,3.42693 -0.66995,1.04731 -1.21809,1.9891 -1.21809,2.09287 0,0.17449 -0.79333,1.55487 -5.29056,9.2056 -0.91357,1.55417 -2.42707,4.17683 -3.36334,5.82813 -0.93627,1.65131 -2.45342,4.27397 -3.37143,5.82814 -0.91802,1.55417 -2.61555,4.49473 -3.7723,6.53457 -1.15675,2.03985 -3.02982,5.29831 -4.16239,7.24102 -3.90475,6.69787 -5.94727,10.24844 -6.85615,11.91822 -0.5014,0.92115 -0.99708,1.67616 -1.10152,1.67779 -0.10444,0.002 -0.97866,-0.81143 -1.94271,-1.80682 z"
       style="opacity:1;fill:#ececec;fill-opacity:1;stroke:#ffffff;stroke-width:0;stroke-linecap:round;stroke-linejoin:round;stroke-miterlimit:4;stroke-dasharray:none;stroke-opacity:1" />
    <path
       inkscape:connector-curvature="0"
       id="path833"
       d="m 457.40612,238.87779 c -1.22548,-2.08935 -2.82017,-4.83199 -3.54375,-6.09475 -0.72358,-1.26277 -2.10461,-3.647 -3.06895,-5.29831 -0.96433,-1.6513 -2.51996,-4.35344 -3.45694,-6.00474 -0.93698,-1.65131 -2.44855,-4.27397 -3.35903,-5.82814 -3.30429,-5.64031 -5.60282,-9.61097 -7.66768,-13.24576 -1.1588,-2.03985 -3.03154,-5.29831 -4.16164,-7.24102 -1.1301,-1.94271 -2.91383,-5.04222 -3.96384,-6.8878 -1.05001,-1.84557 -2.0583,-3.50659 -2.24063,-3.69115 -0.56829,-0.5752 -0.37882,-0.7749 1.16966,-1.23285 2.81646,-0.83294 6.82433,-3.19734 9.39174,-5.54057 1.4086,-1.2856 2.61191,-2.27835 2.67403,-2.2061 0.0621,0.0722 0.31605,0.52872 0.56429,1.0144 0.24823,0.48568 0.95927,1.6778 1.58008,2.64916 0.6208,0.97135 2.2535,3.75296 3.62822,6.18135 1.37471,2.42839 4.20362,7.35581 6.28647,10.94983 2.08284,3.59402 4.36994,7.57255 5.08245,8.84117 0.7125,1.26863 1.86455,3.2555 2.56012,4.41526 1.38388,2.30744 5.99091,10.30218 8.03391,13.94154 0.70886,1.26276 1.71959,2.92889 2.24606,3.7025 0.52646,0.77362 0.95721,1.51549 0.95721,1.64861 0,0.13313 0.72341,1.46565 1.60758,2.96116 0.88418,1.49551 1.55971,2.75775 1.50119,2.80498 -0.0585,0.0472 -1.56423,0.72367 -3.34603,1.50321 -3.00856,1.31624 -6.54806,3.47203 -9.1549,5.57595 l -1.09147,0.8809 z"
       style="opacity:1;fill:#ececec;fill-opacity:1;stroke:#ffffff;stroke-width:0;stroke-linecap:round;stroke-linejoin:round;stroke-miterlimit:4;stroke-dasharray:none;stroke-opacity:1" />
    <path
       inkscape:connector-curvature="0"
       id="path835"
       d="m 328.98912,166.43196 c 0.77468,-2.4408 0.77468,-11.79671 0,-14.23751 -0.20021,-0.63082 0.87681,-0.65209 33.01955,-0.65209 18.27459,0 33.22085,0.11921 33.21393,0.26491 -0.007,0.14571 -0.24286,1.21861 -0.52431,2.38424 -0.65564,2.71534 -0.65564,7.52805 0,10.24339 0.28145,1.16563 0.5174,2.23853 0.52431,2.38424 0.007,0.1457 -14.93934,0.26491 -33.21393,0.26491 -32.14274,0 -33.21976,-0.0213 -33.01955,-0.65209 z"
       style="opacity:1;fill:#ececec;fill-opacity:1;stroke:#ffffff;stroke-width:0;stroke-linecap:round;stroke-linejoin:round;stroke-miterlimit:4;stroke-dasharray:none;stroke-opacity:1" />
    <path
       inkscape:connector-curvature="0"
       id="path837"
       d="m 225.38925,294.57652 c -11.56699,-2.0658 -20.41898,-11.75435 -21.1395,-23.13728 -0.2585,-4.08378 0.29225,-7.27687 1.9154,-11.10502 1.56451,-3.68983 2.77426,-5.50287 5.47163,-8.20024 2.71232,-2.71231 5.56179,-4.52845 9.37946,-5.97809 3.00264,-1.14015 3.22296,-1.17056 8.382,-1.15718 4.94081,0.0128 5.46513,0.0797 7.77084,0.99183 8.19755,3.24279 13.33589,8.40714 15.85294,15.93318 0.96482,2.88481 1.06314,3.60389 1.06249,7.77084 -7e-4,4.21736 -0.0925,4.86793 -1.12639,7.97665 -1.89621,5.70164 -5.56132,10.38207 -10.44155,13.33413 -2.2865,1.3831 -6.66378,3.22395 -8.17325,3.43724 -2.63839,0.37279 -7.23191,0.44151 -8.95407,0.13394 z m 9.28181,-10.24824 c 4.0045,-1.5216 7.77828,-5.27129 9.2637,-9.2046 0.92121,-2.43931 0.83514,-8.41884 -0.15697,-10.90403 -3.81566,-9.55812 -15.74515,-12.92346 -23.86994,-6.73377 -2.39753,1.82651 -4.04829,4.04495 -5.2106,7.00249 -1.23226,3.13551 -1.14398,7.91578 0.20628,11.17024 1.21094,2.91865 4.2239,6.32068 6.8764,7.76436 3.71552,2.02224 8.97883,2.39187 12.89113,0.90531 z"
       style="opacity:1;fill:#ececec;fill-opacity:1;stroke:#ffffff;stroke-width:0;stroke-linecap:round;stroke-linejoin:round;stroke-miterlimit:4;stroke-dasharray:none;stroke-opacity:1" />
    <path
       inkscape:connector-curvature="0"
       id="path839"
       d="m 224.91152,284.40056 c -4.3713,-1.44741 -7.6178,-4.3105 -9.57676,-8.44576 -1.05293,-2.22269 -1.12489,-2.62371 -1.12327,-6.26024 0.002,-3.732 0.0505,-3.98274 1.23603,-6.35004 1.57884,-3.15259 4.20372,-5.78077 7.29194,-7.3011 2.30758,-1.13601 2.57088,-1.18411 6.48217,-1.18411 3.93083,0 4.1652,0.0435 6.542,1.21344 3.2232,1.58661 5.8858,4.25619 7.33131,7.35053 1.03698,2.21983 1.11486,2.65624 1.11923,6.27128 0.006,5.0795 -0.72877,7.04229 -3.89248,10.39599 -3.0815,3.26655 -6.04636,4.65438 -10.34649,4.8431 -2.32115,0.10187 -3.53058,-0.0254 -5.06368,-0.53309 z"
       style="opacity:1;fill:#ececec;fill-opacity:1;stroke:#ffffff;stroke-width:0;stroke-linecap:round;stroke-linejoin:round;stroke-miterlimit:4;stroke-dasharray:none;stroke-opacity:1" />
    <path
       inkscape:connector-curvature="0"
       id="path843"
       d="m 289.6223,416.58895 c -13.1311,-1.64567 -23.26435,-8.60432 -29.05262,-19.95085 -2.79138,-5.47184 -3.62026,-9.22341 -3.62026,-16.38557 0,-4.7672 0.13104,-6.17659 0.83745,-9.00712 1.49239,-5.97988 4.81559,-11.85244 9.41936,-16.64536 3.68199,-3.83327 11.73278,-8.66618 15.52828,-9.32166 0.38854,-0.0671 1.75097,-0.36841 3.02763,-0.66957 8.00701,-1.88884 17.56049,-0.33779 25.5091,4.14152 4.58651,2.58464 10.27549,8.23645 13.1256,13.03983 6.44875,10.86827 6.72074,24.74512 0.70209,35.8203 -1.55456,2.86061 -5.10722,7.5229 -7.17984,9.42237 -4.23347,3.87978 -11.37225,7.61687 -16.64051,8.71115 -3.37116,0.70022 -9.35186,1.13376 -11.65628,0.84496 z m 9.61091,-16.68322 c 7.63387,-2.68001 12.67651,-8.55909 13.93918,-16.25132 0.51914,-3.16257 0.52056,-3.75391 0.0163,-6.7449 -2.00419,-11.88633 -13.46272,-19.3098 -25.30986,-16.39714 -6.74008,1.65708 -12.9394,7.75561 -14.6662,14.42776 -0.69873,2.69983 -0.69898,7.92778 -5.3e-4,10.60939 1.78747,6.86253 8.11843,13.02819 15.22922,14.83157 2.78008,0.70506 8.09662,0.47088 10.79193,-0.47536 z"
       style="opacity:1;fill:#ececec;fill-opacity:1;stroke:#ffffff;stroke-width:0;stroke-linecap:round;stroke-linejoin:round;stroke-miterlimit:4;stroke-dasharray:none;stroke-opacity:1" />
    <path
       inkscape:connector-curvature="0"
       id="path845"
       d="m 413.1111,404.61699 c -0.9503,-0.26093 -3.18888,-1.18078 -4.97462,-2.04411 -2.69265,-1.30179 -3.76395,-2.08684 -6.27685,-4.59974 -2.5011,-2.5011 -3.33333,-3.63403 -4.7674,-6.48991 -2.00225,-3.98739 -2.62771,-6.66979 -2.62771,-11.26952 0,-4.23565 0.53238,-6.71767 2.21827,-10.34198 2.31727,-4.98164 5.99447,-8.89317 10.97185,-11.67105 6.445,-3.59695 15.92355,-3.75778 22.69564,-0.38509 6.77536,3.37431 11.43798,9.09451 13.23302,16.23453 1.33214,5.29881 0.74766,12.21705 -1.41926,16.79902 -1.31808,2.78709 -4.09997,6.39452 -6.50729,8.43834 -2.56757,2.17987 -7.51028,4.76342 -10.46594,5.47052 -2.24693,0.53755 -9.93523,0.4478 -12.07971,-0.14101 z m 12.36827,-10.10003 c 3.36591,-1.40123 6.2608,-4.16268 7.94035,-7.57433 1.0609,-2.155 1.20052,-2.7872 1.31697,-5.96321 0.10602,-2.89147 -0.002,-3.92843 -0.5808,-5.57174 -1.01705,-2.88799 -3.31871,-5.98285 -5.6827,-7.6411 -3.32188,-2.33016 -4.59464,-2.70252 -9.23747,-2.70252 -3.95084,0 -4.15657,0.0386 -6.47562,1.21571 -4.65188,2.36117 -7.8154,6.64371 -8.71024,11.79128 -1.34635,7.74493 4.39397,15.85327 12.41681,17.53904 2.58294,0.54273 6.1111,0.11481 9.0127,-1.09313 z"
       style="opacity:1;fill:#ececec;fill-opacity:1;stroke:#ffffff;stroke-width:0;stroke-linecap:round;stroke-linejoin:round;stroke-miterlimit:4;stroke-dasharray:none;stroke-opacity:1" />
    <path
       inkscape:connector-curvature="0"
       id="path847"
       d="m 415.43388,395.06585 c -7.50416,-2.01945 -12.50734,-9.97204 -11.03255,-17.5363 0.89586,-4.59495 4.19792,-8.86816 8.48745,-10.98364 2.19027,-1.08019 2.47109,-1.12863 6.542,-1.12863 4.07875,0 4.34862,0.0468 6.56874,1.13979 2.8592,1.40757 5.97652,4.56973 7.30965,7.41477 0.87373,1.86463 0.95686,2.4103 0.95686,6.28069 0,4.00432 -0.0603,4.36592 -1.09104,6.5409 -3.13632,6.61806 -10.7304,10.15907 -17.74111,8.27242 z"
       style="opacity:1;fill:#ececec;fill-opacity:1;stroke:#ffffff;stroke-width:0;stroke-linecap:round;stroke-linejoin:round;stroke-miterlimit:4;stroke-dasharray:none;stroke-opacity:1" />
    <path
       inkscape:connector-curvature="0"
       id="path849"
       d="m 477.71214,305.68407 c -1.16563,-0.27302 -2.67565,-0.59639 -3.3556,-0.71859 -2.02361,-0.36369 -8.79937,-3.79575 -11.83288,-5.9936 -6.07141,-4.39889 -11.84037,-13.09113 -13.52754,-20.3823 -0.84137,-3.63599 -0.81593,-14.2905 0.0423,-17.7109 1.98586,-7.91459 7.99131,-16.62903 14.34374,-20.81403 2.83664,-1.86879 8.14145,-4.57056 10.09134,-5.13958 4.86227,-1.41891 11.96382,-1.78137 17.48441,-0.89241 9.28984,1.49591 18.37539,7.42907 23.73688,15.50094 5.16249,7.77228 7.2809,17.37052 5.75943,26.09526 -2.22773,12.77474 -10.93041,23.43673 -22.96173,28.13129 -1.94272,0.75804 -4.8611,1.629 -6.4853,1.93548 -3.60842,0.6809 -10.36381,0.67502 -13.29504,-0.0115 z m 11.62236,-16.02388 c 3.66474,-0.93729 6.54757,-2.53743 9.20962,-5.11191 2.78955,-2.69778 4.22535,-4.96039 5.27916,-8.31914 1.56602,-4.99134 1.505,-8.53874 -0.23392,-13.59898 -1.98881,-5.78738 -7.826,-11.06537 -14.07793,-12.72928 -2.39674,-0.63788 -7.7077,-0.65737 -10.03319,-0.0368 -10.5671,2.81978 -17.6075,13.90207 -15.23196,23.97664 2.73452,11.59705 13.94903,18.66842 25.08822,15.8195 z"
       style="opacity:1;fill:#ececec;fill-opacity:1;stroke:#ffffff;stroke-width:0;stroke-linecap:round;stroke-linejoin:round;stroke-miterlimit:4;stroke-dasharray:none;stroke-opacity:1" />
    <path
       inkscape:connector-curvature="0"
       id="path851"
       d="m 415.36875,184.04572 c -5.4463,-0.69357 -11.50226,-4.21598 -15.33257,-8.91808 -2.10393,-2.5828 -4.64325,-7.74918 -5.14398,-10.46572 -0.53666,-2.91145 -0.52844,-7.85618 0.0178,-10.69743 0.24049,-1.25092 1.20168,-3.79063 2.17011,-5.73392 1.45582,-2.92135 2.23665,-3.9845 4.80353,-6.54035 5.07457,-5.05276 10.42017,-7.26641 17.54716,-7.26641 7.09945,0 13.03518,2.47293 17.91043,7.46182 4.93802,5.05311 7.27953,11.44255 6.88734,18.79401 -0.2549,4.77824 -1.30605,8.16329 -3.79545,12.22266 -1.4985,2.44356 -2.45092,3.52188 -4.70017,5.3215 -3.12053,2.49674 -6.51915,4.40733 -9.28504,5.21975 -2.28453,0.67103 -8.06941,0.98545 -11.07914,0.60217 z m 8.56325,-9.92622 c 4.52279,-1.52362 7.5917,-4.2097 9.56226,-8.36944 1.06163,-2.24105 1.12499,-2.60362 1.12499,-6.43685 0,-3.81782 -0.0661,-4.20008 -1.09864,-6.35797 -3.34399,-6.98826 -10.86036,-10.59923 -18.0685,-8.68037 -7.34627,1.95562 -12.69989,10.01542 -11.43236,17.21126 0.78803,4.47375 3.82734,9.06404 7.37996,11.14602 3.82363,2.24079 8.60963,2.8088 12.53229,1.48735 z"
       style="opacity:1;fill:#ececec;fill-opacity:1;stroke:#ffffff;stroke-width:0;stroke-linecap:round;stroke-linejoin:round;stroke-miterlimit:4;stroke-dasharray:none;stroke-opacity:1" />
    <path
       inkscape:connector-curvature="0"
       id="path853"
       d="m 414.8343,173.88608 c -7.3048,-2.60746 -11.7404,-9.73725 -10.51356,-16.89951 2.02552,-11.82489 16.05899,-16.94329 25.0933,-9.15224 3.41765,2.94733 5.0286,6.62469 5.0286,11.47888 0,6.40384 -2.99641,11.11935 -8.8305,13.89671 -1.97821,0.94174 -2.7603,1.10788 -5.65153,1.2006 -2.54243,0.0815 -3.78469,-0.0455 -5.12631,-0.52444 z"
       style="opacity:1;fill:#ececec;fill-opacity:1;stroke:#ffffff;stroke-width:0;stroke-linecap:round;stroke-linejoin:round;stroke-miterlimit:4;stroke-dasharray:none;stroke-opacity:1" />
    <path
       inkscape:connector-curvature="0"
       id="path855"
       d="m 288.73925,195.47088 c -0.38854,-0.0781 -2.13698,-0.40452 -3.88542,-0.7253 -3.34749,-0.61414 -6.59837,-1.92602 -10.43269,-4.21005 -3.48368,-2.07516 -6.31686,-4.14879 -6.33187,-4.63435 -0.007,-0.23836 -0.42738,-0.70463 -0.93334,-1.03615 -1.50197,-0.98413 -5.05415,-6.04535 -6.90158,-9.83352 -1.19383,-2.44796 -2.00365,-4.77908 -2.63819,-7.59424 -0.83126,-3.68786 -0.8989,-4.55007 -0.73436,-9.36034 0.21919,-6.40747 1.08384,-10.02661 3.58648,-15.01186 3.35868,-6.69046 8.671,-12.16846 15.30977,-15.78725 5.31983,-2.89984 11.11807,-4.34631 17.42242,-4.34631 13.38355,0 25.474,7.27192 31.9239,19.20092 11.45148,21.17938 -0.92402,47.90769 -24.39848,52.69525 -3.91457,0.79837 -9.67745,1.1076 -11.98664,0.6432 z M 298.066,179.2835 c 6.01838,-1.60176 11.90922,-6.79407 14.10931,-12.43626 1.61998,-4.15447 1.68777,-10.36572 0.15934,-14.59844 -0.94412,-2.6146 -3.20036,-5.86439 -5.59464,-8.05832 -7.80438,-7.15129 -19.61235,-7.10642 -27.63321,0.10502 -1.95094,1.75406 -4.22677,5.10308 -5.46378,8.04028 -0.68533,1.62727 -0.78155,2.48628 -0.78155,6.97743 0,4.46678 0.0983,5.35494 0.7691,6.94583 1.20815,2.8655 3.70825,6.51891 5.6448,8.24878 2.1377,1.90955 5.99034,4.02696 8.60708,4.73045 2.4856,0.66823 7.75477,0.69163 10.18355,0.0452 z"
       style="opacity:1;fill:#ececec;fill-opacity:1;stroke:#ffffff;stroke-width:0;stroke-linecap:round;stroke-linejoin:round;stroke-miterlimit:4;stroke-dasharray:none;stroke-opacity:1" />
    <path
       inkscape:connector-curvature="0"
       id="path857"
       d="m 250.6124,471.70532 v -25.07864 h 17.66102 17.66102 v 4.94508 4.94509 H 273.3041 260.67377 l 0.0469,5.07754 0.0469,5.07754 9.5811,0.0457 9.5811,0.0457 v 4.94356 4.94357 h -9.62525 -9.62526 v 5.12169 5.1217 h 12.62763 12.62763 v 4.94508 4.94509 h -17.6611 -17.66102 z"
       style="opacity:1;fill:#ececec;fill-opacity:1;stroke:#ffffff;stroke-width:0;stroke-linecap:round;stroke-linejoin:round;stroke-miterlimit:4;stroke-dasharray:none;stroke-opacity:1" />
    <path
       inkscape:connector-curvature="0"
       id="path859"
       d="m 290.77801,474.57524 c 0.0609,-0.4614 0.17598,-1.76075 0.25582,-2.88745 0.0798,-1.1267 0.20168,-2.14 0.27076,-2.25178 0.0914,-0.1479 2.09977,-0.20323 7.37626,-0.20323 h 7.25064 l -0.10337,0.75059 c -0.0568,0.41283 -0.15655,1.80363 -0.22156,3.09068 l -0.1182,2.34009 h -7.41051 -7.4105 z"
       style="opacity:1;fill:#ececec;fill-opacity:1;stroke:#ffffff;stroke-width:0;stroke-linecap:round;stroke-linejoin:round;stroke-miterlimit:4;stroke-dasharray:none;stroke-opacity:1" />
    <path
       inkscape:connector-curvature="0"
       id="path861"
       d="m 336.44495,496.60136 c -0.33998,-0.0805 -1.19547,-0.20107 -1.90111,-0.26782 -0.70564,-0.0668 -1.32625,-0.19141 -1.37915,-0.277 -0.0529,-0.0856 -0.32522,-0.15562 -0.60517,-0.15562 -0.27994,0 -0.5581,-0.0795 -0.61813,-0.17661 -0.06,-0.0971 -0.30315,-0.17661 -0.54026,-0.17661 -0.2371,0 -0.4311,-0.0601 -0.4311,-0.13361 0,-0.0735 -0.33776,-0.23775 -0.75059,-0.36504 -0.77824,-0.23995 -2.62685,-1.08286 -2.78161,-1.26834 -0.0486,-0.0582 -0.36647,-0.24296 -0.70644,-0.41057 -0.78914,-0.38906 -1.21702,-0.659 -1.65731,-1.04558 -0.1936,-0.16999 -0.42217,-0.30907 -0.50793,-0.30907 -0.0858,0 -0.25889,-0.0993 -0.38473,-0.22076 -0.47038,-0.45384 -1.16474,-1.01551 -1.25542,-1.01551 -0.0516,0 -0.73438,-0.65177 -1.51719,-1.44838 -1.38012,-1.40444 -3.86115,-4.65766 -3.86115,-5.06287 0,-0.10997 -0.0795,-0.19994 -0.17661,-0.19994 -0.0971,0 -0.17661,-0.0704 -0.17661,-0.15656 0,-0.0861 -0.34505,-0.90072 -0.76677,-1.81025 -0.42172,-0.90953 -0.90116,-2.13054 -1.06542,-2.71336 -0.16426,-0.58281 -0.37554,-1.30372 -0.4695,-1.60203 -0.094,-0.2983 -0.17085,-0.75059 -0.17085,-1.00508 0,-0.25449 -0.0795,-0.51184 -0.17661,-0.57187 -0.0971,-0.06 -0.17661,-0.61635 -0.17661,-1.23627 0,-0.61992 -0.0795,-1.17624 -0.17661,-1.23627 -0.22259,-0.13757 -0.23619,-4.01789 -0.0149,-4.24748 0.089,-0.0923 0.2009,-0.64462 0.24879,-1.22744 0.0876,-1.06584 0.2331,-1.82819 0.69112,-3.6205 0.24944,-0.9761 0.38414,-1.30911 1.48137,-3.66253 0.32778,-0.70305 0.59597,-1.35872 0.59597,-1.45703 0,-0.0983 0.0601,-0.17875 0.1335,-0.17875 0.0734,0 0.23307,-0.21856 0.35478,-0.48568 0.39943,-0.8767 2.55861,-3.61299 4.03233,-5.11012 0.7951,-0.80774 1.49765,-1.46861 1.56122,-1.46861 0.0636,0 0.31427,-0.19868 0.55711,-0.44152 0.24283,-0.24284 0.49751,-0.44171 0.56595,-0.44194 0.0684,-2.3e-4 0.40259,-0.23847 0.74257,-0.52942 0.33997,-0.29095 0.71748,-0.52919 0.83889,-0.52941 0.12142,-2.3e-4 0.22077,-0.0621 0.22077,-0.13745 0,-0.0754 0.35688,-0.29392 0.79307,-0.48567 0.43619,-0.19176 0.79383,-0.40826 0.79475,-0.48111 9.2e-4,-0.0728 0.16062,-0.13246 0.35489,-0.13246 0.19427,0 0.35322,-0.0795 0.35322,-0.17661 0,-0.0971 0.14305,-0.17661 0.3179,-0.17661 0.17484,0 0.3934,-0.0684 0.48568,-0.15194 0.0923,-0.0836 0.60489,-0.29185 1.13913,-0.46285 0.53425,-0.171 1.10936,-0.38079 1.27803,-0.4662 0.16867,-0.0854 0.54148,-0.15528 0.82847,-0.15528 0.287,0 0.57093,-0.0795 0.63096,-0.17661 0.06,-0.0971 0.32699,-0.17661 0.59324,-0.17661 0.26624,0 0.58244,-0.0984 0.70266,-0.21858 0.16147,-0.16147 1.67016,-0.2359 5.77515,-0.28489 l 5.55658,-0.0663 v 4.96507 4.96506 h -4.66975 c -2.92266,0 -4.71058,0.0661 -4.7789,0.17661 -0.06,0.0971 -0.37793,0.17661 -0.70644,0.17661 -0.32851,0 -0.64641,0.0795 -0.70644,0.17661 -0.06,0.0971 -0.29064,0.17661 -0.51245,0.17661 -0.41456,0 -2.97323,1.20716 -3.07862,1.45247 -0.0324,0.0754 -0.13703,0.13702 -0.23255,0.13702 -0.45943,0 -4.21214,3.44316 -4.21214,3.86469 0,0.10854 -0.066,0.19734 -0.14663,0.19734 -0.1708,0 -1.44483,2.45478 -1.44366,2.78161 4.4e-4,0.12142 -0.0787,0.22077 -0.17581,0.22077 -0.0971,0 -0.17661,0.18279 -0.17661,0.4062 0,0.22341 -0.0685,0.4817 -0.15229,0.57398 -0.0838,0.0923 -0.28244,0.7007 -0.44152,1.35205 -0.5258,2.15282 -0.27587,7.01039 0.42737,8.30613 0.0915,0.16867 0.16644,0.4667 0.16644,0.66229 0,0.19559 0.0795,0.35562 0.17661,0.35562 0.0971,0 0.17661,0.15895 0.17661,0.35322 0,0.19427 0.0709,0.35322 0.15746,0.35322 0.0866,0 0.20324,0.18237 0.25918,0.40527 0.29921,1.19212 3.75123,5.24625 4.4671,5.24625 0.13087,0 0.23795,0.0661 0.23795,0.14677 0,0.0807 0.21856,0.25941 0.48568,0.39709 0.26712,0.13768 0.52541,0.29416 0.57398,0.34773 0.16681,0.18401 2.12906,1.05113 2.37865,1.05113 0.13731,0 0.29878,0.0795 0.35881,0.17661 0.06,0.0971 0.29846,0.17661 0.52983,0.17661 0.23137,0 0.46461,0.0711 0.5183,0.15795 0.18477,0.29896 1.61228,0.41362 6.06043,0.48678 l 4.45941,0.0733 v 4.93927 4.93927 l -4.37111,-0.0181 c -2.4041,-0.01 -4.64926,-0.084 -4.98923,-0.16453 z"
       style="opacity:1;fill:#ececec;fill-opacity:1;stroke:#ffffff;stroke-width:0;stroke-linecap:round;stroke-linejoin:round;stroke-miterlimit:4;stroke-dasharray:none;stroke-opacity:1" />
    <path
       inkscape:connector-curvature="0"
       id="path863"
       d="m 350.22054,471.70532 v -25.07864 h 17.66102 17.66102 v 4.94391 4.94392 l -12.67178,0.0453 -12.67178,0.0453 v 5.03339 5.03339 l 9.5811,0.0457 9.5811,0.0457 v 4.94204 4.94205 l -9.5811,0.0457 -9.5811,0.0457 v 5.03339 5.03339 l 12.67178,0.0453 12.67178,0.0453 v 4.94391 4.94392 h -17.66102 -17.66102 z"
       style="opacity:1;fill:#ececec;fill-opacity:1;stroke:#ffffff;stroke-width:0;stroke-linecap:round;stroke-linejoin:round;stroke-miterlimit:4;stroke-dasharray:none;stroke-opacity:1" />
    <path
       inkscape:connector-curvature="0"
       id="path865"
       d="m 389.95783,471.70532 v -25.07864 h 4.94433 4.94434 l 0.0449,20.0894 0.0449,20.08941 12.76009,0.0453 12.76008,0.0453 v 4.94392 4.94393 h -17.74932 -17.74932 z"
       style="opacity:1;fill:#ececec;fill-opacity:1;stroke:#ffffff;stroke-width:0;stroke-linecap:round;stroke-linejoin:round;stroke-miterlimit:4;stroke-dasharray:none;stroke-opacity:1" />
    <path
       inkscape:connector-curvature="0"
       id="path867"
       d="m 428.28224,471.70532 v -25.07864 h 5.03339 5.03339 v 20.13356 20.13356 h 12.71593 12.71593 v 4.94508 4.94509 h -17.74932 -17.74932 z"
       style="opacity:1;fill:#ececec;fill-opacity:1;stroke:#ffffff;stroke-width:0;stroke-linecap:round;stroke-linejoin:round;stroke-miterlimit:4;stroke-dasharray:none;stroke-opacity:1" />
    <path
       inkscape:connector-curvature="0"
       id="path869"
       d="m 250.08257,520.44973 v -14.12881 h 2.529 c 2.47953,0 2.53653,0.009 2.91407,0.44286 0.21179,0.24358 0.38507,0.52174 0.38507,0.61814 0,0.0964 0.0596,0.17684 0.13246,0.17877 0.0729,0.002 0.36744,0.3993 0.65463,0.88305 0.2872,0.48375 0.58523,0.87955 0.66229,0.87955 0.0771,0 0.14011,0.11921 0.14011,0.26491 0,0.14571 0.0614,0.26492 0.13645,0.26492 0.0751,0 0.28625,0.27816 0.46934,0.61813 0.18308,0.33998 0.39984,0.61814 0.48168,0.61814 0.0818,0 0.1488,0.10423 0.1488,0.23161 0,0.12739 0.14306,0.38568 0.31792,0.57399 0.17485,0.1883 0.47014,0.60066 0.65621,0.91635 0.18607,0.31569 0.40064,0.57398 0.47683,0.57398 0.0762,0 0.13853,0.10423 0.13853,0.23162 0,0.12738 0.15895,0.40222 0.35322,0.61075 0.19428,0.20852 0.35322,0.46193 0.35322,0.56313 0,0.1012 0.0741,0.18399 0.16471,0.18399 0.0906,0 0.20942,0.13908 0.26407,0.30907 0.0546,0.16999 0.33797,0.58723 0.62962,0.92721 0.29165,0.33997 0.53045,0.71747 0.53068,0.83889 2.3e-4,0.12142 0.0618,0.22077 0.13686,0.22077 0.0751,0 0.28625,0.27816 0.46934,0.61813 0.18309,0.33998 0.39985,0.61814 0.48169,0.61814 0.0818,0 0.1488,0.10422 0.1488,0.23161 0,0.12739 0.14935,0.39192 0.33189,0.58786 0.18254,0.19593 0.54977,0.70139 0.81607,1.12324 0.26631,0.42185 0.63354,0.92731 0.81608,1.12324 0.18254,0.19594 0.33189,0.46047 0.33189,0.58786 0,0.12739 0.0614,0.23161 0.13645,0.23161 0.075,0 0.28625,0.27816 0.46933,0.61814 0.18309,0.33997 0.39985,0.61813 0.48169,0.61813 0.0818,0 0.1488,0.11642 0.1488,0.2587 0,0.28793 0.59687,0.67505 0.77153,0.5004 0.0613,-0.0613 0.11152,-4.15148 0.11152,-9.08921 v -8.97768 h 2.64915 2.64916 v 14.12881 14.12881 h -2.63365 -2.63365 l -0.84538,-1.19212 c -0.46496,-0.65566 -0.90904,-1.21861 -0.98686,-1.25098 -0.0778,-0.0324 -0.14148,-0.14095 -0.14148,-0.24126 0,-0.20528 -1.24423,-1.96353 -1.45401,-2.05468 -0.0745,-0.0324 -0.13548,-0.13208 -0.13548,-0.22156 0,-0.16365 -1.55052,-2.46881 -1.77146,-2.63363 -0.0651,-0.0486 -0.21531,-0.2723 -0.33379,-0.49718 -0.32323,-0.6135 -2.7191,-3.99753 -2.87817,-4.06525 -0.076,-0.0324 -0.13828,-0.16484 -0.13828,-0.29435 0,-0.12952 -0.0605,-0.26198 -0.13455,-0.29435 -0.074,-0.0324 -0.4515,-0.5549 -0.83889,-1.16114 -0.3874,-0.60625 -0.76396,-1.10297 -0.83681,-1.10382 -0.0729,-8.5e-4 -0.13246,-0.0808 -0.13246,-0.17774 0,-0.20256 -1.25219,-2.00173 -1.45481,-2.0903 -0.0741,-0.0324 -0.13468,-0.16295 -0.13468,-0.29017 0,-0.2643 -0.48192,-0.49616 -0.72238,-0.34755 -0.093,0.0575 -0.16067,3.84838 -0.16067,9.00769 v 8.90839 h -2.56085 -2.56085 z"
       style="opacity:1;fill:#ececec;fill-opacity:1;stroke:#ffffff;stroke-width:0;stroke-linecap:round;stroke-linejoin:round;stroke-miterlimit:4;stroke-dasharray:none;stroke-opacity:1" />
    <path
       inkscape:connector-curvature="0"
       id="path871"
       d="m 276.5741,520.44973 v -14.12881 h 2.73746 2.73745 v 14.12881 14.12881 h -2.73745 -2.73746 z"
       style="opacity:1;fill:#ececec;fill-opacity:1;stroke:#ffffff;stroke-width:0;stroke-linecap:round;stroke-linejoin:round;stroke-miterlimit:4;stroke-dasharray:none;stroke-opacity:1" />
    <path
       inkscape:connector-curvature="0"
       id="path873"
       d="m 295.11817,523.18719 v -11.39136 h -4.94509 -4.94508 v -2.73746 -2.73745 h 12.71593 12.71593 v 2.73745 2.73746 h -4.92619 c -4.32912,0 -4.93918,0.0339 -5.03339,0.27936 -0.059,0.15365 -0.1072,5.27976 -0.1072,11.39136 v 11.11199 h -2.73745 -2.73746 z"
       style="opacity:1;fill:#ececec;fill-opacity:1;stroke:#ffffff;stroke-width:0;stroke-linecap:round;stroke-linejoin:round;stroke-miterlimit:4;stroke-dasharray:none;stroke-opacity:1" />
    <path
       inkscape:connector-curvature="0"
       id="path875"
       d="m 325.31851,531.8479 v -2.74427 h 3.61576 c 3.45539,0 3.64815,-0.0182 4.34576,-0.41003 0.65162,-0.366 0.89424,-0.66403 1.42554,-1.75105 0.20777,-0.42511 0.18839,-1.54774 -0.0267,-1.54774 -0.0971,0 -0.17661,-0.122 -0.17661,-0.27112 0,-0.77966 -1.12059,-1.67159 -2.10013,-1.67159 -0.2905,0 -0.5773,-0.0795 -0.63733,-0.17661 -0.06,-0.0971 -0.53688,-0.17661 -1.05966,-0.17661 -0.52278,0 -0.99963,-0.0795 -1.05966,-0.17661 -0.06,-0.0971 -0.34397,-0.17661 -0.63096,-0.17661 -0.28699,0 -0.65981,-0.0728 -0.82847,-0.16176 -0.61262,-0.32315 -1.6009,-0.72129 -1.7904,-0.72129 -0.10674,0 -0.19407,-0.0623 -0.19407,-0.13853 0,-0.0762 -0.21856,-0.26968 -0.48568,-0.42998 -0.90362,-0.54224 -1.71918,-1.50225 -2.38689,-2.80967 -0.36572,-0.71609 -0.66375,-1.47612 -0.66229,-1.68894 10e-4,-0.21282 -0.0768,-0.43607 -0.17396,-0.4961 -0.23039,-0.14239 -0.23039,-3.2132 0,-3.35559 0.0971,-0.06 0.17661,-0.34289 0.17661,-0.62856 0,-0.28568 0.0795,-0.51941 0.17661,-0.51941 0.0971,0 0.17661,-0.15895 0.17661,-0.35322 0,-0.19427 0.0702,-0.35322 0.15602,-0.35322 0.0858,0 0.20628,-0.13908 0.26773,-0.30907 0.39907,-1.10394 1.7707,-2.51277 3.14048,-3.22567 0.55724,-0.29001 1.13564,-0.52729 1.28532,-0.52729 0.14968,0 0.27215,-0.0795 0.27215,-0.17661 0,-0.0971 0.27347,-0.17661 0.60771,-0.17661 0.33424,0 0.65683,-0.0795 0.71687,-0.17661 0.0673,-0.10886 1.56189,-0.17661 3.89584,-0.17661 h 3.7867 v 2.73745 2.73746 h -3.51064 c -3.65595,0 -4.26137,0.0985 -5.05903,0.82331 -0.19652,0.17856 -0.45481,0.54695 -0.57399,0.81865 -0.2715,0.61896 -0.2816,2.14538 -0.0175,2.63893 0.28633,0.53502 0.98099,1.19403 1.25862,1.19403 0.13069,0 0.31312,0.0666 0.4054,0.14811 0.1861,0.16429 1.87111,0.47632 3.56752,0.66063 0.6071,0.066 1.10382,0.18914 1.10382,0.27373 0,0.0846 0.19868,0.1538 0.44152,0.1538 0.24284,0 0.44153,0.0795 0.44153,0.17661 0,0.0971 0.15895,0.17661 0.35322,0.17661 0.19427,0 0.35322,0.0741 0.35322,0.16471 0,0.0906 0.15897,0.21516 0.35326,0.27683 0.42249,0.13409 2.4725,2.05059 2.4725,2.31147 0,0.10052 0.14016,0.33682 0.31146,0.52513 0.94299,1.03655 1.29757,4.63633 0.66,6.70033 -0.52233,1.69093 -1.6848,3.18105 -3.3557,4.30154 -1.60304,1.07498 -2.76396,1.29246 -7.37347,1.3813 l -3.66466,0.0706 z"
       style="opacity:1;fill:#ececec;fill-opacity:1;stroke:#ffffff;stroke-width:0;stroke-linecap:round;stroke-linejoin:round;stroke-miterlimit:4;stroke-dasharray:none;stroke-opacity:1" />
    <path
       inkscape:connector-curvature="0"
       id="path877"
       d="m 343.15613,520.44973 v -14.12881 h 2.73746 2.73746 v 14.12881 14.12881 h -2.73746 -2.73746 z"
       style="opacity:1;fill:#ececec;fill-opacity:1;stroke:#ffffff;stroke-width:0;stroke-linecap:round;stroke-linejoin:round;stroke-miterlimit:4;stroke-dasharray:none;stroke-opacity:1" />
    <path
       inkscape:connector-curvature="0"
       id="path879"
       d="m 351.81003,520.44973 v -14.12881 h 2.73616 2.73616 l 0.0455,11.3472 0.0454,11.3472 7.02026,0.0462 7.02025,0.0462 v 2.73543 2.73543 h -9.80186 -9.80187 z"
       style="opacity:1;fill:#ececec;fill-opacity:1;stroke:#ffffff;stroke-width:0;stroke-linecap:round;stroke-linejoin:round;stroke-miterlimit:4;stroke-dasharray:none;stroke-opacity:1" />
    <path
       inkscape:connector-curvature="0"
       id="path881"
       d="m 351.81003,520.44973 v -14.12881 h 2.73746 2.73746 v 11.39135 11.39136 h 7.0644 7.06441 v 2.73746 2.73745 h -9.80186 -9.80187 z"
       style="opacity:1;fill:#ececec;fill-opacity:1;stroke:#ffffff;stroke-width:0;stroke-linecap:round;stroke-linejoin:round;stroke-miterlimit:4;stroke-dasharray:none;stroke-opacity:1" />
    <path
       inkscape:connector-curvature="0"
       id="path883"
       d="m 383.68817,534.40193 c -0.06,-0.0971 -0.46973,-0.17661 -0.91045,-0.17661 -1.05892,0 -2.84285,-0.48834 -4.02072,-1.10064 -1.14378,-0.59458 -1.96445,-1.0922 -2.0155,-1.2221 -0.0324,-0.0824 -0.13384,-0.1498 -0.22547,-0.1498 -0.54194,0 -3.866,-3.63798 -3.866,-4.2311 0,-0.10129 -0.0795,-0.18415 -0.17661,-0.18415 -0.0971,0 -0.17661,-0.15895 -0.17661,-0.35322 0,-0.19428 -0.0702,-0.35322 -0.15601,-0.35322 -0.0858,0 -0.2145,-0.17882 -0.28598,-0.39738 -0.44426,-1.35824 -0.65992,-2.07923 -0.83206,-2.78161 -0.24923,-1.01697 -0.25275,-4.9667 -0.005,-6.00474 0.26324,-1.1045 0.64242,-2.24765 0.79672,-2.40195 0.0712,-0.0712 0.12946,-0.27517 0.12946,-0.45325 0,-0.17808 0.0795,-0.32379 0.17661,-0.32379 0.0971,0 0.17661,-0.11921 0.17661,-0.26491 0,-0.14571 0.0596,-0.26583 0.13246,-0.26694 0.0729,-0.001 0.29141,-0.33728 0.48568,-0.74703 0.59391,-1.25266 4.28407,-4.72586 5.02106,-4.72586 0.10391,0 0.18894,-0.0638 0.18894,-0.14172 0,-0.0779 0.41724,-0.28774 0.9272,-0.4662 0.50996,-0.17846 1.00271,-0.39285 1.09498,-0.47641 0.0923,-0.0836 0.42536,-0.15194 0.74017,-0.15194 0.31482,0 0.62151,-0.0795 0.68155,-0.17661 0.06,-0.0971 0.49714,-0.17661 0.97135,-0.17661 0.47421,0 0.91133,-0.0795 0.97136,-0.17661 0.064,-0.10357 1.09093,-0.17661 2.48296,-0.17661 h 2.37382 v 2.73745 2.73746 l -2.42839,0.008 c -2.19927,0.007 -3.87802,0.235 -4.21537,0.57235 -0.0695,0.0695 -0.272,0.1263 -0.45008,0.1263 -0.17809,0 -0.32379,0.0601 -0.32379,0.1335 0,0.0734 -0.25829,0.24599 -0.57398,0.38348 -0.74687,0.32527 -2.78938,2.29986 -3.15423,3.04933 -0.2693,0.55322 -0.36976,0.78727 -0.84166,1.96107 -0.23456,0.58342 -0.26814,4.4075 -0.0426,4.85087 0.0858,0.16866 0.25589,0.54509 0.37798,0.8365 0.56875,1.35753 0.86091,1.80256 1.82101,2.7738 1.05543,1.06767 3.13028,2.25959 3.93344,2.25959 0.22105,0 0.45102,0.0795 0.51106,0.17661 0.0649,0.10499 1.17923,0.17661 2.74788,0.17661 h 2.63873 v 2.73746 2.73745 h -2.28551 c -1.33317,0 -2.33099,-0.0736 -2.39466,-0.17661 z"
       style="opacity:1;fill:#ececec;fill-opacity:1;stroke:#ffffff;stroke-width:0;stroke-linecap:round;stroke-linejoin:round;stroke-miterlimit:4;stroke-dasharray:none;stroke-opacity:1" />
    <path
       inkscape:connector-curvature="0"
       id="path885"
       d="m 443.30344,520.44973 v -14.12881 h 5.81771 c 3.68797,0 5.85767,0.0646 5.92686,0.17661 0.06,0.0971 0.37889,0.17661 0.70856,0.17661 1.01707,0 3.16443,1.01664 4.14308,1.96149 1.73368,1.67379 2.53554,3.55875 2.54643,5.98596 0.0103,2.28917 -0.4351,3.59589 -1.8058,5.29831 -0.912,1.13271 -1.15247,1.32178 -2.63404,2.07107 -0.66935,0.33851 -0.69881,0.52171 -0.22077,1.37283 0.19427,0.34588 0.35322,0.74567 0.35322,0.88842 0,0.14275 0.0795,0.25954 0.17661,0.25954 0.0971,0 0.17661,0.11704 0.17661,0.26009 0,0.14305 0.19082,0.6795 0.42404,1.19212 0.23322,0.51262 0.53078,1.19032 0.66125,1.50601 0.13046,0.31569 0.29728,0.57399 0.37071,0.57399 0.0734,0 0.13349,0.12413 0.13349,0.27585 0,0.15172 0.18908,0.68817 0.42017,1.19212 0.2311,0.50394 0.52866,1.17456 0.66125,1.49025 0.1326,0.31569 0.30115,0.57398 0.37458,0.57398 0.0734,0 0.1335,0.12029 0.1335,0.26731 0,0.14702 0.0789,0.40532 0.17528,0.57398 0.0964,0.16867 0.33367,0.72392 0.52725,1.23388 l 0.35197,0.9272 h -2.99979 c -2.5607,0 -2.9998,-0.0391 -2.9998,-0.26731 0,-0.14702 -0.0685,-0.40531 -0.15222,-0.57398 -0.74254,-1.4959 -1.08914,-2.28368 -1.08681,-2.47015 0.002,-0.12142 -0.0767,-0.22076 -0.17385,-0.22076 -0.0971,0 -0.17661,-0.107 -0.17661,-0.23778 0,-0.2215 -0.33431,-1.03501 -0.7178,-1.74669 -0.0909,-0.16867 -0.16525,-0.42696 -0.16525,-0.57398 0,-0.14702 -0.0795,-0.26731 -0.17661,-0.26731 -0.0971,0 -0.17661,-0.10053 -0.17661,-0.2234 0,-0.12286 -0.22865,-0.69905 -0.5081,-1.28042 -0.27946,-0.58137 -0.62767,-1.33519 -0.7738,-1.67517 -0.14613,-0.33997 -0.39806,-0.91616 -0.55984,-1.28042 l -0.29416,-0.66229 h -1.4929 -1.4929 v 5.73983 5.73983 h -2.73745 -2.73746 z m 11.74457,-3.00237 c 0.06,-0.0971 0.22437,-0.17661 0.36518,-0.17661 0.33651,0 1.31262,-0.87538 1.31262,-1.17716 0,-0.12965 0.0795,-0.23573 0.17661,-0.23573 0.0971,0 0.17661,-0.42959 0.17661,-0.95466 0,-1.32802 -0.53188,-2.27998 -1.53816,-2.75298 -0.69813,-0.32816 -1.05417,-0.35824 -3.72308,-0.31447 l -2.95113,0.0484 -0.0491,2.64139 c -0.027,1.45277 -0.01,2.74423 0.0386,2.86991 0.10944,0.28521 6.01703,0.33474 6.19182,0.0519 z"
       style="opacity:1;fill:#ececec;fill-opacity:1;stroke:#ffffff;stroke-width:0;stroke-linecap:round;stroke-linejoin:round;stroke-miterlimit:4;stroke-dasharray:none;stroke-opacity:1" />
    <path
       inkscape:connector-curvature="0"
       id="path887"
       d="m 418.96789,533.91625 c 0.0968,-0.36425 0.21608,-0.96081 0.26497,-1.32568 0.0489,-0.36487 0.15999,-0.70732 0.24686,-0.76101 0.0869,-0.0537 0.15796,-0.41083 0.15796,-0.79364 0,-0.38281 0.0711,-0.69602 0.15806,-0.69602 0.0869,0 0.19753,-0.29803 0.24577,-0.66229 0.0482,-0.36426 0.22245,-1.21861 0.38712,-1.89856 0.16467,-0.67995 0.34234,-1.61377 0.39483,-2.07517 0.0525,-0.46139 0.16479,-0.8389 0.24957,-0.8389 0.0848,0 0.15414,-0.27347 0.15414,-0.60771 0,-0.33424 0.0795,-0.65683 0.17661,-0.71686 0.0971,-0.06 0.17661,-0.37793 0.17661,-0.70644 0,-0.32851 0.0711,-0.64122 0.15795,-0.69491 0.0869,-0.0537 0.20227,-0.39615 0.25643,-0.76102 0.24354,-1.64061 0.56816,-3.20772 0.68943,-3.32816 0.0729,-0.0724 0.13246,-0.39179 0.13246,-0.70984 0,-0.31805 0.0795,-0.6274 0.17661,-0.68743 0.0971,-0.06 0.17661,-0.37793 0.17661,-0.70644 0,-0.32851 0.0795,-0.64641 0.17661,-0.70644 0.0971,-0.06 0.17661,-0.36938 0.17661,-0.68743 0,-0.31805 0.0595,-0.63778 0.13222,-0.7105 0.12665,-0.12665 0.44749,-1.64442 0.68534,-3.24214 0.0618,-0.41506 0.18127,-0.79725 0.26553,-0.84932 0.0842,-0.0521 0.15318,-0.32372 0.15318,-0.60366 0,-0.27994 0.0795,-0.5581 0.17661,-0.61814 0.0971,-0.06 0.17661,-0.31737 0.17661,-0.57186 0,-0.2545 0.0954,-0.72666 0.21209,-1.04924 l 0.21209,-0.58652 h 3.93204 c 3.70673,0 3.94251,0.0196 4.11486,0.34161 0.10055,0.18788 0.18282,0.58056 0.18282,0.87262 0,0.29206 0.0795,0.58014 0.17661,0.64017 0.0971,0.06 0.17661,0.37793 0.17661,0.70644 0,0.32851 0.0711,0.64122 0.15795,0.69491 0.0869,0.0537 0.20036,0.39615 0.25219,0.76102 0.0518,0.36487 0.22417,1.25945 0.38298,1.98797 0.15882,0.72852 0.33228,1.58361 0.38547,1.9002 0.0532,0.31659 0.1674,0.61931 0.2538,0.67271 0.0864,0.0534 0.1571,0.40561 0.1571,0.78268 0,0.37708 0.0795,0.73472 0.17661,0.79475 0.0971,0.06 0.17661,0.38262 0.17661,0.71686 0,0.33425 0.0648,0.60772 0.14401,0.60772 0.0792,0 0.23291,0.53645 0.34158,1.19212 0.10867,0.65566 0.2867,1.58949 0.39563,2.07516 0.10893,0.48568 0.24215,1.14208 0.29606,1.45868 0.0539,0.31659 0.16871,0.61931 0.25512,0.67271 0.0864,0.0534 0.15709,0.36587 0.15709,0.69438 0,0.32851 0.0689,0.63989 0.15319,0.69196 0.0842,0.0521 0.19737,0.43426 0.25137,0.84932 0.054,0.41506 0.2321,1.31097 0.39578,1.99092 0.16368,0.67995 0.33712,1.5348 0.38542,1.89967 0.0483,0.36487 0.15891,0.70732 0.24578,0.76101 0.0869,0.0537 0.15795,0.36641 0.15795,0.69491 0,0.32851 0.0795,0.64641 0.17661,0.70644 0.0971,0.06 0.17661,0.34811 0.17661,0.64017 0,0.29206 0.0684,0.66488 0.15205,0.82848 0.0836,0.1636 0.19784,0.59549 0.25381,0.95974 l 0.10177,0.66229 h -2.72636 -2.72635 v -0.61813 c 0,-0.33998 -0.0685,-0.61814 -0.15229,-0.61814 -0.0838,0 -0.20398,-0.4397 -0.26714,-0.97712 -0.13524,-1.15071 -0.44163,-2.51793 -0.66109,-2.95006 -0.0857,-0.16867 -0.15575,-0.54148 -0.15575,-0.82847 0,-0.287 -0.0795,-0.57093 -0.17661,-0.63096 -0.0971,-0.06 -0.17661,-0.38262 -0.17661,-0.71686 0,-0.33424 -0.0795,-0.60771 -0.17661,-0.60771 -0.0971,0 -0.17661,-0.15895 -0.17661,-0.35323 0,-0.34049 -0.11774,-0.35322 -3.26729,-0.35322 h -3.26729 v 0.52984 c 0,0.2914 -0.0795,0.52983 -0.17661,0.52983 -0.0971,0 -0.17661,0.27347 -0.17661,0.60771 0,0.33424 -0.0795,0.65683 -0.17661,0.71686 -0.0971,0.06 -0.17661,0.37793 -0.17661,0.70644 0,0.32851 -0.0711,0.64122 -0.15795,0.69491 -0.0869,0.0537 -0.20343,0.39615 -0.259,0.76102 -0.33768,2.21691 -0.54866,3.22424 -0.67531,3.22424 -0.0792,0 -0.14401,0.19869 -0.14401,0.44153 v 0.44152 h -2.71886 -2.71886 z m 12.33105,-13.38424 c 0.16329,-0.19674 0.17536,-0.3781 0.0441,-0.66228 -0.1951,-0.42237 -0.54576,-2.04847 -0.70414,-3.26533 -0.054,-0.41505 -0.16716,-0.79725 -0.25141,-0.84932 -0.0842,-0.0521 -0.15318,-0.36345 -0.15318,-0.69196 0,-0.32851 -0.0795,-0.64641 -0.17661,-0.70644 -0.0971,-0.06 -0.17661,-0.36938 -0.17661,-0.68743 0,-0.31805 -0.0532,-0.63143 -0.11813,-0.6964 -0.24083,-0.24083 -0.76493,0.47692 -0.76493,1.04756 0,0.31918 -0.0795,0.62946 -0.17661,0.68949 -0.0971,0.06 -0.17661,0.34396 -0.17661,0.63095 0,0.287 -0.0706,0.65981 -0.15689,0.82848 -0.17068,0.33361 -0.54328,2.02965 -0.6787,3.08939 -0.0466,0.36486 -0.16103,0.71052 -0.25423,0.76812 -0.0967,0.0598 -0.039,0.24894 0.13434,0.44042 0.25427,0.28097 0.5549,0.33569 1.84428,0.33569 1.16909,0 1.59471,-0.0653 1.76535,-0.27094 z"
       style="opacity:1;fill:#ececec;fill-opacity:1;stroke:#ffffff;stroke-width:0;stroke-linecap:round;stroke-linejoin:round;stroke-miterlimit:4;stroke-dasharray:none;stroke-opacity:1" />
    <path
       inkscape:connector-curvature="0"
       id="path889"
       d="m 391.55666,520.44973 v -14.12881 h 2.73746 2.73745 v 5.73983 5.73983 h 6.62289 6.62288 v -5.73983 -5.73983 h 2.64915 2.64915 v 14.12881 14.12881 h -2.56085 -2.56084 v -5.39822 c 0,-3.38339 -0.0682,-5.52572 -0.18283,-5.73983 -0.17569,-0.32828 -0.43754,-0.34161 -6.71118,-0.34161 h -6.52837 v 5.73983 5.73983 h -2.73745 -2.73746 z"
       style="opacity:1;fill:#ececec;fill-opacity:1;stroke:#ffffff;stroke-width:0;stroke-linecap:round;stroke-linejoin:round;stroke-miterlimit:4;stroke-dasharray:none;stroke-opacity:1" />
  </g>
</svg>
