<?xml version="1.0" standalone="no"?>
<!DOCTYPE svg PUBLIC "-//W3C//DTD SVG 20010904//EN"
 "http://www.w3.org/TR/2001/REC-SVG-20010904/DTD/svg10.dtd">
<svg version="1.0" xmlns="http://www.w3.org/2000/svg"
 width="512.000000pt" height="512.000000pt" viewBox="0 0 512.000000 512.000000"
 preserveAspectRatio="xMidYMid meet">
<metadata>
Created by potrace 1.16, written by Peter Selinger 2001-2019
</metadata>
<g transform="translate(0.000000,512.000000) scale(0.100000,-0.100000)"
fill="#000000" stroke="none">
<path d="M2390 5091 c0 -28 0 -28 -81 -35 -168 -14 -450 -83 -636 -156 -145
-57 -339 -159 -474 -249 -504 -335 -871 -825 -1043 -1394 -42 -137 -83 -338
-92 -446 -7 -81 -7 -81 -35 -81 l-29 0 0 -170 0 -170 29 0 c28 0 28 0 35 -81
9 -108 50 -309 92 -446 246 -813 894 -1461 1707 -1707 137 -42 338 -83 446
-92 81 -7 81 -7 81 -35 l0 -29 170 0 170 0 0 29 c0 28 0 28 81 35 168 14 450
83 636 156 145 57 339 159 474 249 504 335 871 825 1043 1394 42 137 83 338
92 446 7 81 7 81 35 81 l29 0 0 170 0 170 -29 0 c-28 0 -28 0 -35 78 -8 95
-49 297 -82 414 -59 203 -163 438 -281 632 -196 323 -517 643 -843 842 -313
190 -722 332 -1042 360 -78 7 -78 7 -78 35 l0 29 -170 0 -170 0 0 -29z m860
-1636 l0 -155 -545 0 -545 0 0 -295 0 -295 545 0 545 0 0 -155 0 -155 -546 0
-545 0 3 -212 c3 -237 8 -257 80 -325 71 -68 65 -68 556 -71 l442 -3 0 -155 0
-155 -502 3 c-459 4 -507 5 -552 22 -153 58 -249 158 -304 315 -14 40 -16 144
-20 846 -2 440 0 819 3 842 3 24 18 56 31 73 l26 30 664 0 664 0 0 -155z"/>
</g>
</svg>
